Coordinates
version=1
nRows=54
nColumns=12
inDegrees=yes

Units are S.I. units (second, meters, Newtons, ...)
Angles are in degrees

endheader
time	SC_y	SC_z	SC_x	AC_y	AC_z	AC_x	GH_y	GH_z	GH_yy	EL_x	PS_y
       0.0              -40.72          4.028          18.87          42.91         -15.26         -1.527          134.4          23.82           1.87          37.59          125.8
  0.005333              -40.72          4.032          18.88          42.91         -15.25         -1.525          134.3          23.82          1.865          37.59          125.8
   0.01067              -40.71          4.035          18.89          42.91         -15.25         -1.523          134.3          23.82          1.859           37.6          125.8
     0.016              -40.71          4.039           18.9          42.91         -15.25          -1.52          134.3          23.81          1.853           37.6          125.8
   0.02133              -40.71          4.042           18.9          42.92         -15.24         -1.517          134.2          23.81          1.846          37.61          125.8
   0.02667               -40.7          4.047          18.91          42.92         -15.24         -1.515          134.2          23.81          1.839          37.61          125.8
     0.032               -40.7          4.051          18.92          42.92         -15.23         -1.512          134.1          23.81          1.831          37.62          125.8
   0.03733              -40.69          4.056          18.94          42.92         -15.23         -1.508          134.1          23.81          1.823          37.62          125.8
   0.04267              -40.69          4.061          18.95          42.93         -15.22         -1.505          134.0          23.81          1.815          37.63          125.8
     0.048              -40.68          4.066          18.96          42.93         -15.22         -1.501          133.9           23.8          1.806          37.63          125.8
   0.05333              -40.68          4.072          18.97          42.93         -15.21         -1.497          133.9           23.8          1.796          37.64          125.8
   0.05867              -40.67          4.078          18.99          42.94          -15.2         -1.493          133.8           23.8          1.785          37.65          125.8
     0.064              -40.66          4.085           19.0          42.94         -15.19         -1.488          133.7           23.8          1.774          37.66          125.8
   0.06933              -40.65          4.092          19.02          42.94         -15.19         -1.483          133.7          23.79          1.761          37.67          125.8
   0.07467              -40.65            4.1          19.04          42.95         -15.18         -1.477          133.6          23.79          1.748          37.68          125.8
      0.08              -40.64          4.108          19.06          42.95         -15.17         -1.471          133.5          23.79          1.733          37.69          125.8
   0.08533              -40.63          4.117          19.08          42.96         -15.16         -1.465          133.4          23.78          1.717           37.7          125.8
   0.09067              -40.62          4.127           19.1          42.96         -15.14         -1.458          133.3          23.78            1.7          37.71          125.9
     0.096              -40.61          4.138          19.13          42.97         -15.13          -1.45          133.1          23.77          1.681          37.72          125.9
    0.1013              -40.59           4.15          19.16          42.97         -15.12         -1.442          133.0          23.77          1.661          37.74          125.9
    0.1067              -40.58          4.163          19.19          42.98          -15.1         -1.432          132.8          23.76          1.638          37.75          125.9
     0.112              -40.56          4.178          19.22          42.99         -15.09         -1.422          132.7          23.76          1.613          37.77          125.9
    0.1173              -40.55          4.194          19.26           43.0         -15.07         -1.411          132.5          23.75          1.586          37.79          125.9
    0.1227              -40.53          4.211           19.3          43.01         -15.05         -1.398          132.3          23.74          1.555          37.81          125.9
     0.128              -40.51          4.231          19.35          43.02         -15.03         -1.385          132.1          23.73          1.521          37.84          125.9
    0.1333              -40.48          4.253           19.4          43.03          -15.0         -1.369          131.8          23.73          1.484          37.87          125.9
    0.1387              -40.46          4.278          19.46          43.04         -14.97         -1.352          131.6          23.72          1.441           37.9          125.9
     0.144              -40.43          4.305          19.52          43.06         -14.94         -1.332          131.3           23.7          1.394          37.93          126.0
    0.1493               -40.4          4.337           19.6          43.07          -14.9          -1.31          130.9          23.69           1.34          37.97          126.0
    0.1547              -40.36          4.372          19.68          43.09         -14.86         -1.285          130.5          23.68          1.279          38.01          126.0
      0.16              -40.32          4.413          19.78          43.11         -14.82         -1.257          130.0          23.66          1.209          38.06          126.0
    0.1653              -40.27          4.459          19.88          43.14         -14.76         -1.224          129.5          23.64          1.129          38.12          126.1
    0.1707              -40.21          4.513          20.01          43.17          -14.7         -1.186          128.9          23.62          1.037          38.18          126.1
     0.176              -40.14          4.575          20.16           43.2         -14.63         -1.142          128.2          23.59         0.9293          38.26          126.1
    0.1813              -40.07          4.648          20.33          43.24         -14.55         -1.091          127.4          23.56         0.8037          38.35          126.2
    0.1867              -39.97          4.734          20.53          43.28         -14.45          -1.03          126.4          23.53         0.6556          38.46          126.2
     0.192              -39.87          4.837          20.77          43.34         -14.33        -0.9581          125.3          23.48         0.4796          38.58          126.3
    0.1973              -39.74          4.959          21.06           43.4         -14.19        -0.8717          123.9          23.43         0.2686          38.73          126.4
    0.2027              -39.58          5.108          21.41          43.48         -14.02        -0.7672          122.2          23.37        0.01344          38.92          126.5
     0.208              -39.39          5.289          21.84          43.58         -13.81        -0.6396          120.2          23.29        -0.2983          39.14          126.6
    0.2133              -39.15          5.512          22.36           43.7         -13.55        -0.4821          117.7           23.2        -0.6831          39.42          126.7
    0.2187              -38.86          5.791          23.02          43.85         -13.23        -0.2857          114.5          23.08         -1.163          39.76          126.9
     0.224              -38.48          6.143          23.84          44.03         -12.83       -0.03824          110.6          22.94         -1.767          40.19          127.1
    0.2293              -38.01          6.589          24.89          44.27         -12.31         0.2763          105.6          22.75         -2.536          40.74          127.4
    0.2347              -37.41          7.161          26.24          44.58         -11.65         0.6789          99.14          22.51         -3.519          41.44          127.7
      0.24              -36.63          7.894          27.96          44.97         -10.81          1.196          90.89          22.21         -4.781          42.35          128.2
    0.2453              -35.64          8.831          30.16          45.46         -9.732          1.856          80.35          21.82         -6.393           43.5          128.8
    0.2507              -34.39          10.01          32.93          46.09         -8.376          2.685           67.1          21.33         -8.421          44.95          129.5
     0.256              -32.87          11.45          36.31          46.85         -6.724          3.697          50.95          20.73         -10.89          46.72          130.4
    0.2613              -31.11          13.11          40.22          47.74         -4.808          4.869          32.24          20.04         -13.75          48.77          131.4
    0.2667               -29.2          14.91          44.46           48.7         -2.735          6.138          11.97          19.28         -16.85          50.98          132.5
     0.272               -27.3          16.71           48.7          49.66        -0.6612          7.407         -8.293          18.53         -19.95           53.2          133.6
    0.2773              -25.54          18.38          52.61          50.54          1.254          8.579         -27.01          17.84         -22.82          55.25          134.7
    0.2827              -24.02          19.81          55.99          51.31          2.906          9.591         -43.16          17.24         -25.29          57.02          135.6
